# xmcd
#
# Track frame offsets: 
#        180
#        17150
#        31731
#        45901
#        59062
#        70456
#        84755
#        97497
#        110776
#        125947
#        139028
#        151194
#        163818
#        177565
#        190601
#        207535
#        221901
#        236116
#        249183
#        262887
#
# Disc length: 3631 seconds
#
# Revision: 0
# Processed by: cddbd v1.5.2PL0 Copyright (c) Steve Scherf et al.
# Submitted via: ExactAudioCopy v0.99pb4
#
DISCID=2b0e2d14
DTITLE=Various Artist - Working Man Blues CD2
DYEAR=2006
DGENRE=Blues
TTITLE0=John Lee Hooker - Goin' Mad Blues
TTITLE1=Leadbelly - I'm On My Last Go Round
TTITLE2=Joe McCoy And Memphis Minnie - Let's Go To Town
TTITLE3=John Lee Williamson - Thinking My Blues Away
TTITLE4=Champion Jack Dupree - Chain Gang Blues
TTITLE5=Oak Cliff T-Bone - Wichita Falls Blues
TTITLE6=Bigg Joe Turner - Roll 'em Pete
TTITLE7=John Lee Williamson - Jackson Blues
TTITLE8=Muddy Waters - 32-20 Blues
TTITLE9=Big Joe Turner - Piney Brown Blues
TTITLE10=John Lee Williamson - Bad Luck Blues
TTITLE11=Ligtnin' Hopkins - I Can't Stay Here In Your Town
TTITLE12=Joe Williams And Count Basie - Always On The Blue Side
TTITLE13=Kokomo Arnold - Fool Man Blues
TTITLE14=John Lee Hooker - Don't Trust Nobody
TTITLE15=Big Joe Williams - Stack O' Dollars
TTITLE16=Oak Cliff T-Bone Trinity River Blues
TTITLE17=Big Bill Broonzy - Bull Cow Blues
TTITLE18=T-Bone Walker - Hard Pain Blues
TTITLE19=Leadbelly - Midnight Special
EXTD=
EXTT0=
EXTT1=
EXTT2=
EXTT3=
EXTT4=
EXTT5=
EXTT6=
EXTT7=
EXTT8=
EXTT9=
EXTT10=
EXTT11=
EXTT12=
EXTT13=
EXTT14=
EXTT15=
EXTT16=
EXTT17=
EXTT18=
EXTT19=
PLAYORDER=
